<svg width="44" height="45" viewBox="0 0 44 45" fill="none" xmlns="http://www.w3.org/2000/svg">
<g filter="url(#filter0_d_1963_13317)">
<path d="M2 24C2 14.0589 10.0589 6 20 6C29.9411 6 38 14.0589 38 24C38 33.9411 29.9411 42 20 42C10.0589 42 2 33.9411 2 24Z" fill="#FCFCFC"/>
<path d="M18.09 29.287V29.5911C18.09 30.6453 18.945 31.5003 20 31.5003V31.5003C21.055 31.5003 21.91 30.6453 21.91 29.5903V29.2861" stroke="#52525B" stroke-width="1.5" stroke-linecap="round" stroke-linejoin="round"/>
<path d="M21.5275 18.7925V18.0275C21.5275 17.1842 20.8442 16.5 20 16.5V16.5C19.1559 16.5 18.4725 17.1842 18.4725 18.0275V18.7925" stroke="#52525B" stroke-width="1.5" stroke-linecap="round" stroke-linejoin="round"/>
<path fill-rule="evenodd" clip-rule="evenodd" d="M15.4692 22.4897V22.4897C15.4692 20.4039 17.16 18.7139 19.245 18.7139H20.7559C22.8417 18.7139 24.5317 20.4047 24.5317 22.4897V22.4897V24.8205C24.5317 25.2622 24.7075 25.6864 25.02 25.9989L25.5542 26.533C25.8667 26.8455 26.0425 27.2697 26.0425 27.7114V27.7114C26.0425 28.5814 25.3375 29.2864 24.4675 29.2864H15.5334C14.6634 29.2864 13.9584 28.5814 13.9584 27.7114V27.7114C13.9584 27.2697 14.1342 26.8455 14.4467 26.533L14.9809 25.9989C15.2934 25.6864 15.4692 25.2622 15.4692 24.8205V22.4897Z" stroke="#52525B" stroke-width="1.5" stroke-linecap="round" stroke-linejoin="round"/>
</g>
<path d="M28 7C28 3.13401 31.134 0 35 0H37C40.866 0 44 3.13401 44 7C44 10.866 40.866 14 37 14H35C31.134 14 28 10.866 28 7Z" fill="#0044EE"/>
<path d="M35.9976 11.16C35.4309 11.16 34.9309 11.08 34.4976 10.92C34.0709 10.76 33.7376 10.5267 33.4976 10.22C33.2576 9.90667 33.1376 9.52 33.1376 9.06C33.1376 8.54 33.2976 8.11 33.6176 7.77C33.9442 7.42333 34.3809 7.19667 34.9276 7.09L34.9476 7.3C34.5009 7.2 34.1442 7.01667 33.8776 6.75C33.6176 6.47667 33.4876 6.12333 33.4876 5.69C33.4876 5.31 33.5842 4.97333 33.7776 4.68C33.9776 4.38667 34.2642 4.15667 34.6376 3.99C35.0176 3.82333 35.4709 3.74 35.9976 3.74C36.5309 3.74 36.9842 3.82333 37.3576 3.99C37.7376 4.15667 38.0242 4.38667 38.2176 4.68C38.4176 4.97333 38.5176 5.31 38.5176 5.69C38.5176 6.12333 38.3842 6.47333 38.1176 6.74C37.8576 7.00667 37.5042 7.19333 37.0576 7.3L37.0776 7.09C37.6242 7.19667 38.0576 7.42333 38.3776 7.77C38.6976 8.11 38.8576 8.54 38.8576 9.06C38.8576 9.52 38.7376 9.90667 38.4976 10.22C38.2642 10.5267 37.9342 10.76 37.5076 10.92C37.0809 11.08 36.5776 11.16 35.9976 11.16ZM35.9976 10.02C36.4576 10.02 36.8242 9.92667 37.0976 9.74C37.3776 9.54667 37.5176 9.26333 37.5176 8.89C37.5176 8.53667 37.3876 8.25333 37.1276 8.04C36.8742 7.82 36.4976 7.71 35.9976 7.71C35.5042 7.71 35.1276 7.82 34.8676 8.04C34.6142 8.25333 34.4876 8.53667 34.4876 8.89C34.4876 9.26333 34.6242 9.54667 34.8976 9.74C35.1709 9.92667 35.5376 10.02 35.9976 10.02ZM35.9976 6.74C36.3709 6.74 36.6609 6.66333 36.8676 6.51C37.0809 6.35 37.1876 6.11333 37.1876 5.8C37.1876 5.51333 37.0876 5.28667 36.8876 5.12C36.6876 4.95333 36.3909 4.87 35.9976 4.87C35.6176 4.87 35.3242 4.95333 35.1176 5.12C34.9176 5.28667 34.8176 5.51333 34.8176 5.8C34.8176 6.11333 34.9209 6.35 35.1276 6.51C35.3342 6.66333 35.6242 6.74 35.9976 6.74Z" fill="white"/>
<defs>
<filter id="filter0_d_1963_13317" x="0" y="5" width="40" height="40" filterUnits="userSpaceOnUse" color-interpolation-filters="sRGB">
<feFlood flood-opacity="0" result="BackgroundImageFix"/>
<feColorMatrix in="SourceAlpha" type="matrix" values="0 0 0 0 0 0 0 0 0 0 0 0 0 0 0 0 0 0 127 0" result="hardAlpha"/>
<feOffset dy="1"/>
<feGaussianBlur stdDeviation="1"/>
<feColorMatrix type="matrix" values="0 0 0 0 0.101961 0 0 0 0 0.101961 0 0 0 0 0.101961 0 0 0 0.08 0"/>
<feBlend mode="normal" in2="BackgroundImageFix" result="effect1_dropShadow_1963_13317"/>
<feBlend mode="normal" in="SourceGraphic" in2="effect1_dropShadow_1963_13317" result="shape"/>
</filter>
</defs>
</svg>
