<svg width="36" height="36" viewBox="0 0 36 36" fill="none" xmlns="http://www.w3.org/2000/svg">
<path d="M0 18C0 8.05888 8.05888 0 18 0C27.9411 0 36 8.05888 36 18C36 27.9411 27.9411 36 18 36C8.05888 36 0 27.9411 0 18Z" fill="#6B6EF8"/>
<path d="M26.3333 18.0003C26.3333 15.7639 25.4523 13.7333 24.0185 12.2365M26.3333 18.0003C26.3333 20.2367 25.4523 22.2674 24.0185 23.7642M26.3333 18.0003H9.66663M18 26.3337C20.3659 26.3337 22.5016 25.3477 24.0185 23.7642M18 26.3337C15.634 26.3337 13.4983 25.3477 11.9814 23.7642M18 26.3337V9.66699M9.66663 18.0003C9.66663 15.7639 10.5476 13.7333 11.9814 12.2365M9.66663 18.0003C9.66663 20.2367 10.5476 22.2674 11.9814 23.7642M18 9.66699C20.3659 9.66699 22.5016 10.653 24.0185 12.2365M18 9.66699C15.634 9.66699 13.4983 10.653 11.9814 12.2365M24.0185 12.2365C22.5846 13.7333 21.7037 15.7639 21.7037 18.0003C21.7037 20.2367 22.5846 22.2674 24.0185 23.7642M11.9814 12.2365C13.4153 13.7333 14.2963 15.7639 14.2963 18.0003C14.2963 20.2367 13.4153 22.2674 11.9814 23.7642" stroke="white" stroke-width="1.5" stroke-linecap="round"/>
</svg>
