<svg width="36" height="36" viewBox="0 0 36 36" fill="none" xmlns="http://www.w3.org/2000/svg">
<path d="M0 18C0 8.05888 8.05888 0 18 0C27.9411 0 36 8.05888 36 18C36 27.9411 27.9411 36 18 36C8.05888 36 0 27.9411 0 18Z" fill="#E7B008"/>
<path d="M18.625 19.667C18.625 20.0122 18.3452 20.292 18 20.292C17.6548 20.292 17.375 20.0122 17.375 19.667C17.375 19.3218 17.6548 19.042 18 19.042C18.3452 19.042 18.625 19.3218 18.625 19.667Z" fill="white"/>
<path d="M21.5356 16.1315C20.6307 15.2266 19.3807 14.667 18 14.667C16.6193 14.667 15.3693 15.2266 14.4645 16.1315M16.2323 17.8992C16.6847 17.4468 17.3097 17.167 18 17.167C18.6904 17.167 19.3154 17.4468 19.7678 17.8992M17.1667 23.8337H18.8334M12.1667 13.0003L12.1667 23.0003C12.1667 24.8413 13.6591 26.3337 15.5 26.3337H20.5C22.341 26.3337 23.8334 24.8413 23.8334 23.0003V13.0003C23.8334 11.1594 22.341 9.66699 20.5 9.66699L15.5 9.66699C13.6591 9.66699 12.1667 11.1594 12.1667 13.0003Z" stroke="white" stroke-width="1.5" stroke-linecap="round" stroke-linejoin="round"/>
</svg>
