<svg width="36" height="36" viewBox="0 0 36 36" fill="none" xmlns="http://www.w3.org/2000/svg">
<path d="M0 18C0 8.05888 8.05888 0 18 0C27.9411 0 36 8.05888 36 18C36 27.9411 27.9411 36 18 36C8.05888 36 0 27.9411 0 18Z" fill="#F67416"/>
<path d="M23.3033 12.6967C26.2323 15.6256 26.2323 20.3744 23.3033 23.3033C20.3744 26.2322 15.6257 26.2322 12.6968 23.3033C9.76783 20.3743 9.76783 15.6256 12.6968 12.6967C15.6257 9.76777 20.3744 9.76777 23.3033 12.6967" stroke="white" stroke-width="1.5" stroke-linecap="round" stroke-linejoin="round"/>
<path fill-rule="evenodd" clip-rule="evenodd" d="M19.4208 20.778H17.0816C16.5666 20.778 16.1483 20.3605 16.1483 19.8446V18.043H19.4208C20.17 18.043 20.7783 18.6505 20.7783 19.4005V19.4213C20.7775 20.1705 20.17 20.778 19.4208 20.778V20.778Z" stroke="white" stroke-width="1.5" stroke-linecap="round" stroke-linejoin="round"/>
<path fill-rule="evenodd" clip-rule="evenodd" d="M19.0916 18.0427H16.1483V16.1702C16.1483 15.6468 16.5725 15.2227 17.0958 15.2227H19.0916C19.8525 15.2227 20.47 15.8393 20.47 16.601V16.6652C20.47 17.426 19.8533 18.0427 19.0916 18.0427Z" stroke="white" stroke-width="1.5" stroke-linecap="round" stroke-linejoin="round"/>
<path d="M17.075 15.2253H15.225" stroke="white" stroke-width="1.5" stroke-linecap="round" stroke-linejoin="round"/>
<path d="M17.0833 20.7751H15.225" stroke="white" stroke-width="1.5" stroke-linecap="round" stroke-linejoin="round"/>
<path d="M19.025 14.2998V15.2248" stroke="white" stroke-width="1.5" stroke-linecap="round" stroke-linejoin="round"/>
<path d="M16.75 14.2998V15.2248" stroke="white" stroke-width="1.5" stroke-linecap="round" stroke-linejoin="round"/>
<path d="M16.75 21.7004V20.7754" stroke="white" stroke-width="1.5" stroke-linecap="round" stroke-linejoin="round"/>
<path d="M19.025 21.7004V20.7754" stroke="white" stroke-width="1.5" stroke-linecap="round" stroke-linejoin="round"/>
</svg>
