<svg width="36" height="36" viewBox="0 0 36 36" fill="none" xmlns="http://www.w3.org/2000/svg">
<path d="M0 18C0 8.05888 8.05888 0 18 0C27.9411 0 36 8.05888 36 18C36 27.9411 27.9411 36 18 36C8.05888 36 0 27.9411 0 18Z" fill="#07B4D3"/>
<g clip-path="url(#clip0_1_34653)">
<path d="M11.3333 17.167H24.6667M11.3333 17.167C10.4128 17.167 9.66666 16.4208 9.66666 15.5003V14.667C9.66666 13.7465 10.4128 13.0003 11.3333 13.0003H24.6667C25.5871 13.0003 26.3333 13.7465 26.3333 14.667V15.5003C26.3333 16.4208 25.5871 17.167 24.6667 17.167M11.3333 17.167L11.3333 24.667C11.3333 25.5875 12.0795 26.3337 13 26.3337H23C23.9205 26.3337 24.6667 25.5875 24.6667 24.667V17.167M18 13.0003H21.3333C22.2538 13.0003 23 12.2541 23 11.3337C23 10.4132 22.2538 9.66699 21.3333 9.66699C19.4924 9.66699 18 11.1594 18 13.0003ZM18 13.0003H14.6667C13.7462 13.0003 13 12.2541 13 11.3337C13 10.4132 13.7462 9.66699 14.6667 9.66699C16.5076 9.66699 18 11.1594 18 13.0003ZM18 13.0003V26.3337" stroke="white" stroke-width="1.5" stroke-linecap="round"/>
</g>
<defs>
<clipPath id="clip0_1_34653">
<rect width="20" height="20" fill="white" transform="translate(8 8)"/>
</clipPath>
</defs>
</svg>
