<svg width="20" height="20" viewBox="0 0 20 20" fill="none" xmlns="http://www.w3.org/2000/svg">
<path fill-rule="evenodd" clip-rule="evenodd" d="M15.8337 14.1666H15.0003C14.5403 14.1666 14.167 13.7933 14.167 13.3333V9.16659C14.167 8.70659 14.5403 8.33325 15.0003 8.33325H15.8337C16.7545 8.33325 17.5003 9.07909 17.5003 9.99992V12.4999C17.5003 13.4208 16.7545 14.1666 15.8337 14.1666Z" stroke="#1A1A1A" stroke-width="1.5" stroke-linecap="round" stroke-linejoin="round"/>
<path fill-rule="evenodd" clip-rule="evenodd" d="M5 14.1666H4.16667C3.24583 14.1666 2.5 13.4208 2.5 12.4999V9.99992C2.5 9.07909 3.24583 8.33325 4.16667 8.33325H5C5.46 8.33325 5.83333 8.70659 5.83333 9.16659V13.3333C5.83333 13.7933 5.46 14.1666 5 14.1666Z" stroke="#1A1A1A" stroke-width="1.5" stroke-linecap="round" stroke-linejoin="round"/>
<path d="M15.4163 8.33333V7.91667C15.4163 4.925 12.9913 2.5 9.99967 2.5V2.5C7.00801 2.5 4.58301 4.925 4.58301 7.91667V8.33333" stroke="#1A1A1A" stroke-width="1.5" stroke-linecap="round" stroke-linejoin="round"/>
<path fill-rule="evenodd" clip-rule="evenodd" d="M10.5208 17.7083H9.47917C8.90417 17.7083 8.4375 17.2417 8.4375 16.6667V16.6667C8.4375 16.0917 8.90417 15.625 9.47917 15.625H10.5208C11.0958 15.625 11.5625 16.0917 11.5625 16.6667V16.6667C11.5625 17.2417 11.0958 17.7083 10.5208 17.7083Z" stroke="#1A1A1A" stroke-width="1.5" stroke-linecap="round" stroke-linejoin="round"/>
<path d="M11.5625 16.6667H13.3333C14.2542 16.6667 15 15.9209 15 15.0001V14.1667" stroke="#1A1A1A" stroke-width="1.5" stroke-linecap="round" stroke-linejoin="round"/>
</svg>
