<svg width="20" height="20" viewBox="0 0 20 20" fill="none" xmlns="http://www.w3.org/2000/svg">
<path fill-rule="evenodd" clip-rule="evenodd" d="M14.222 17.4999H5.77866C4.88866 17.4999 4.16699 16.7782 4.16699 15.8882V4.1124C4.16699 3.2224 4.88866 2.50073 5.77866 2.50073H14.2212C15.112 2.50073 15.8337 3.2224 15.8337 4.1124V15.8874C15.8337 16.7782 15.112 17.4999 14.222 17.4999V17.4999Z" stroke="#1A1A1A" stroke-width="1.5" stroke-linecap="round" stroke-linejoin="round"/>
<path d="M15.8337 6.66667H4.16699" stroke="#1A1A1A" stroke-width="1.5" stroke-linecap="round" stroke-linejoin="round"/>
<path d="M6.66862 12.4575C6.69195 12.4575 6.71029 12.4759 6.71029 12.4992C6.71029 12.5225 6.69195 12.5409 6.66862 12.5409C6.64529 12.5409 6.62695 12.5225 6.62695 12.4992C6.62695 12.4767 6.64529 12.4575 6.66862 12.4575" stroke="#1A1A1A" stroke-width="1.5" stroke-linecap="round" stroke-linejoin="round"/>
<path d="M10.0007 12.4592C10.024 12.4592 10.0423 12.4776 10.0423 12.5009C10.0423 12.5242 10.024 12.5426 10.0007 12.5426C9.97733 12.5426 9.959 12.5242 9.959 12.5009C9.95816 12.4776 9.97733 12.4592 10.0007 12.4592" stroke="#1A1A1A" stroke-width="1.5" stroke-linecap="round" stroke-linejoin="round"/>
<path d="M13.3346 12.4575C13.358 12.4575 13.3763 12.4759 13.3763 12.4992C13.3763 12.5225 13.358 12.5409 13.3346 12.5409C13.3113 12.5409 13.293 12.5225 13.293 12.4992C13.293 12.4767 13.3113 12.4575 13.3346 12.4575" stroke="#1A1A1A" stroke-width="1.5" stroke-linecap="round" stroke-linejoin="round"/>
<path d="M6.66862 9.95752C6.69195 9.95752 6.71029 9.97585 6.71029 9.99919C6.71029 10.0225 6.69195 10.0409 6.66862 10.0409C6.64529 10.0409 6.62695 10.0225 6.62695 9.99919C6.62695 9.97669 6.64529 9.95752 6.66862 9.95752" stroke="#1A1A1A" stroke-width="1.5" stroke-linecap="round" stroke-linejoin="round"/>
<path d="M10.0007 9.95923C10.024 9.95923 10.0423 9.97756 10.0423 10.0009C10.0423 10.0242 10.024 10.0426 10.0007 10.0426C9.97733 10.0426 9.959 10.0242 9.959 10.0009C9.95816 9.97756 9.97733 9.95923 10.0007 9.95923" stroke="#1A1A1A" stroke-width="1.5" stroke-linecap="round" stroke-linejoin="round"/>
<path d="M13.3346 9.95752C13.358 9.95752 13.3763 9.97585 13.3763 9.99919C13.3763 10.0225 13.358 10.0409 13.3346 10.0409C13.3113 10.0409 13.293 10.0225 13.293 9.99919C13.293 9.97669 13.3113 9.95752 13.3346 9.95752" stroke="#1A1A1A" stroke-width="1.5" stroke-linecap="round" stroke-linejoin="round"/>
<path d="M6.66862 14.9575C6.69195 14.9575 6.71029 14.9759 6.71029 14.9992C6.71029 15.0225 6.69195 15.0409 6.66862 15.0409C6.64529 15.0409 6.62695 15.0225 6.62695 14.9992C6.62695 14.9767 6.64529 14.9575 6.66862 14.9575" stroke="#1A1A1A" stroke-width="1.5" stroke-linecap="round" stroke-linejoin="round"/>
<path d="M10.0007 14.9592C10.024 14.9592 10.0423 14.9776 10.0423 15.0009C10.0423 15.0242 10.024 15.0426 10.0007 15.0426C9.97733 15.0426 9.959 15.0242 9.959 15.0009C9.95816 14.9776 9.97733 14.9592 10.0007 14.9592" stroke="#1A1A1A" stroke-width="1.5" stroke-linecap="round" stroke-linejoin="round"/>
<path d="M13.3346 14.9575C13.358 14.9575 13.3763 14.9759 13.3763 14.9992C13.3763 15.0225 13.358 15.0409 13.3346 15.0409C13.3113 15.0409 13.293 15.0225 13.293 14.9992C13.293 14.9767 13.3113 14.9575 13.3346 14.9575" stroke="#1A1A1A" stroke-width="1.5" stroke-linecap="round" stroke-linejoin="round"/>
</svg>
