<svg width="20" height="20" viewBox="0 0 20 20" fill="none" xmlns="http://www.w3.org/2000/svg">
<path fill-rule="evenodd" clip-rule="evenodd" d="M14.2215 17.4999H5.77817C4.88817 17.4999 4.1665 16.7782 4.1665 15.8882V4.1124C4.1665 3.2224 4.88817 2.50073 5.77817 2.50073H14.2207C15.1115 2.50073 15.8332 3.2224 15.8332 4.1124V15.8874C15.8332 16.7782 15.1115 17.4999 14.2215 17.4999V17.4999Z" stroke="#1A1A1A" stroke-width="1.5" stroke-linecap="round" stroke-linejoin="round"/>
<path d="M15.8332 6.66667H4.1665" stroke="#1A1A1A" stroke-width="1.5" stroke-linecap="round" stroke-linejoin="round"/>
<path d="M6.66813 12.4575C6.69146 12.4575 6.7098 12.4759 6.7098 12.4992C6.7098 12.5225 6.69146 12.5409 6.66813 12.5409C6.6448 12.5409 6.62646 12.5225 6.62646 12.4992C6.62646 12.4767 6.6448 12.4575 6.66813 12.4575" stroke="#1A1A1A" stroke-width="1.5" stroke-linecap="round" stroke-linejoin="round"/>
<path d="M10.0007 12.4592C10.024 12.4592 10.0423 12.4776 10.0423 12.5009C10.0423 12.5242 10.024 12.5426 10.0007 12.5426C9.97733 12.5426 9.959 12.5242 9.959 12.5009C9.95816 12.4776 9.97733 12.4592 10.0007 12.4592" stroke="#1A1A1A" stroke-width="1.5" stroke-linecap="round" stroke-linejoin="round"/>
<path d="M13.3351 12.4575C13.3585 12.4575 13.3768 12.4759 13.3768 12.4992C13.3768 12.5225 13.3585 12.5409 13.3351 12.5409C13.3118 12.5409 13.2935 12.5225 13.2935 12.4992C13.2935 12.4767 13.3118 12.4575 13.3351 12.4575" stroke="#1A1A1A" stroke-width="1.5" stroke-linecap="round" stroke-linejoin="round"/>
<path d="M6.66813 9.95752C6.69146 9.95752 6.7098 9.97585 6.7098 9.99919C6.7098 10.0225 6.69146 10.0409 6.66813 10.0409C6.6448 10.0409 6.62646 10.0225 6.62646 9.99919C6.62646 9.97669 6.6448 9.95752 6.66813 9.95752" stroke="#1A1A1A" stroke-width="1.5" stroke-linecap="round" stroke-linejoin="round"/>
<path d="M10.0007 9.95923C10.024 9.95923 10.0423 9.97756 10.0423 10.0009C10.0423 10.0242 10.024 10.0426 10.0007 10.0426C9.97733 10.0426 9.959 10.0242 9.959 10.0009C9.95816 9.97756 9.97733 9.95923 10.0007 9.95923" stroke="#1A1A1A" stroke-width="1.5" stroke-linecap="round" stroke-linejoin="round"/>
<path d="M13.3351 9.95752C13.3585 9.95752 13.3768 9.97585 13.3768 9.99919C13.3768 10.0225 13.3585 10.0409 13.3351 10.0409C13.3118 10.0409 13.2935 10.0225 13.2935 9.99919C13.2935 9.97669 13.3118 9.95752 13.3351 9.95752" stroke="#1A1A1A" stroke-width="1.5" stroke-linecap="round" stroke-linejoin="round"/>
<path d="M6.66813 14.9575C6.69146 14.9575 6.7098 14.9759 6.7098 14.9992C6.7098 15.0225 6.69146 15.0409 6.66813 15.0409C6.6448 15.0409 6.62646 15.0225 6.62646 14.9992C6.62646 14.9767 6.6448 14.9575 6.66813 14.9575" stroke="#1A1A1A" stroke-width="1.5" stroke-linecap="round" stroke-linejoin="round"/>
<path d="M10.0007 14.9592C10.024 14.9592 10.0423 14.9776 10.0423 15.0009C10.0423 15.0242 10.024 15.0426 10.0007 15.0426C9.97733 15.0426 9.959 15.0242 9.959 15.0009C9.95816 14.9776 9.97733 14.9592 10.0007 14.9592" stroke="#1A1A1A" stroke-width="1.5" stroke-linecap="round" stroke-linejoin="round"/>
<path d="M13.3351 14.9575C13.3585 14.9575 13.3768 14.9759 13.3768 14.9992C13.3768 15.0225 13.3585 15.0409 13.3351 15.0409C13.3118 15.0409 13.2935 15.0225 13.2935 14.9992C13.2935 14.9767 13.3118 14.9575 13.3351 14.9575" stroke="#1A1A1A" stroke-width="1.5" stroke-linecap="round" stroke-linejoin="round"/>
</svg>
