<svg width="20" height="20" viewBox="0 0 20 20" fill="none" xmlns="http://www.w3.org/2000/svg">
<path d="M15.8193 9.38836C15.7996 9.30777 15.759 9.23305 15.7012 9.17088C15.6434 9.10871 15.5701 9.06105 15.4879 9.03214L11.6702 8.47176L12.6379 3.10152C12.6602 2.99541 12.6458 2.88537 12.5969 2.78753C12.548 2.68969 12.4671 2.60919 12.3662 2.55783C12.2642 2.50669 12.1472 2.48877 12.0333 2.50686C11.9194 2.52494 11.8151 2.57802 11.7365 2.65782L4.31329 10.157C4.25247 10.2165 4.20846 10.2895 4.1853 10.3692C4.16214 10.4489 4.16057 10.5328 4.18073 10.6132C4.20149 10.6934 4.24245 10.7676 4.30014 10.8296C4.35784 10.8916 4.43056 10.9396 4.51213 10.9694L8.32979 11.5298L7.36212 16.9001C7.33987 17.0062 7.35424 17.1162 7.40315 17.2141C7.45205 17.3119 7.53291 17.3924 7.63386 17.4438C7.70996 17.48 7.79386 17.4992 7.8791 17.5C7.95112 17.5003 8.02244 17.4866 8.08858 17.4597C8.15473 17.4328 8.21428 17.3933 8.26351 17.3438L15.6867 9.84456C15.7476 9.78506 15.7916 9.71211 15.8147 9.6324C15.8379 9.5527 15.8395 9.46878 15.8193 9.38836Z" fill="#00DD77"/>
</svg>
