<svg width="36" height="36" viewBox="0 0 36 36" fill="none" xmlns="http://www.w3.org/2000/svg">
<path d="M0 18C0 8.05888 8.05888 0 18 0C27.9411 0 36 8.05888 36 18C36 27.9411 27.9411 36 18 36C8.05888 36 0 27.9411 0 18Z" fill="#7BC111"/>
<path d="M17.1066 18.8221C16.7945 18.5497 16.3207 18.5818 16.0483 18.8938C15.7759 19.2059 15.808 19.6796 16.12 19.9521L16.6133 19.3871L17.1066 18.8221ZM22.1626 19.3871L22.6558 19.9521C22.6686 19.9409 22.6809 19.9294 22.6929 19.9174L22.1626 19.3871ZM17.4753 11.9153C17.1793 12.205 17.1743 12.6799 17.464 12.9759C17.7538 13.2718 18.2287 13.2769 18.5246 12.9871L17.9999 12.4512L17.4753 11.9153ZM18.8933 17.1787C19.2054 17.4511 19.6792 17.419 19.9516 17.107C20.224 16.795 20.1919 16.3212 19.8798 16.0488L19.3866 16.6137L18.8933 17.1787ZM13.8373 16.6137L13.3441 16.0488C13.3313 16.0599 13.319 16.0715 13.307 16.0834L13.8373 16.6137ZM18.5246 24.0856C18.8206 23.7958 18.8256 23.321 18.5359 23.025C18.2461 22.729 17.7712 22.724 17.4753 23.0138L17.9999 23.5497L18.5246 24.0856ZM16.6133 19.3871L16.12 19.9521C17.9921 21.5864 20.7837 21.5864 22.6558 19.9521L22.1626 19.3871L21.6693 18.8221C20.3624 19.9631 18.4135 19.9631 17.1066 18.8221L16.6133 19.3871ZM22.1626 19.3871L22.6929 19.9174L24.0795 18.5308L23.5492 18.0004L23.0189 17.4701L21.6322 18.8567L22.1626 19.3871ZM23.5492 18.0004L24.0851 18.5251C25.8775 16.6943 25.862 13.7618 24.0503 11.9501L23.52 12.4804L22.9896 13.0107C24.2199 14.241 24.2305 16.2325 23.0133 17.4757L23.5492 18.0004ZM23.52 12.4804L24.0503 11.9501C22.2386 10.1384 19.3061 10.1228 17.4753 11.9153L17.9999 12.4512L18.5246 12.9871C19.7679 11.7699 21.7593 11.7804 22.9896 13.0107L23.52 12.4804ZM19.3866 16.6137L19.8798 16.0488C18.0078 14.4144 15.2161 14.4144 13.3441 16.0488L13.8373 16.6137L14.3306 17.1787C15.6375 16.0377 17.5864 16.0377 18.8933 17.1787L19.3866 16.6137ZM13.8373 16.6137L13.307 16.0834L11.9204 17.4701L12.4507 18.0004L12.981 18.5308L14.3677 17.1441L13.8373 16.6137ZM12.4507 18.0004L11.9148 17.4757C10.1224 19.3065 10.1379 22.2391 11.9496 24.0508L12.4799 23.5205L13.0102 22.9901C11.7799 21.7598 11.7694 19.7684 12.9866 18.5251L12.4507 18.0004ZM12.4799 23.5205L11.9496 24.0508C13.7613 25.8625 16.6938 25.878 18.5246 24.0856L17.9999 23.5497L17.4753 23.0138C16.232 24.231 14.2406 24.2204 13.0102 22.9901L12.4799 23.5205Z" fill="white"/>
</svg>
