<svg width="29" height="36" viewBox="0 0 29 36" fill="none" xmlns="http://www.w3.org/2000/svg">
<path d="M28.0757 4.23262L18.4559 33.9563C18.0502 35.2094 16.8647 36.0418 15.548 35.9984L3.38109 35.5942C3.38109 35.5942 2.16533 35.5476 1.19163 34.8501C0.373107 34.2644 -0.273955 33.2185 0.117075 31.3549C1.01707 27.0613 5.38124 3.53047 5.38124 3.53047C5.38124 3.53047 5.87081 1.34023 8.11768 1.18196C8.63036 1.1458 23.963 0.0651953 24.8505 0.00266153C25.1694 -0.0198382 25.4821 0.101195 25.7032 0.332399L27.649 2.36669C28.1231 2.86254 28.2875 3.57935 28.0757 4.23262Z" fill="#0032AD"/>
<path d="M24.7074 4.02438C24.7074 4.02438 16.7875 29.6826 15.986 31.398C15.1838 33.1142 13.0595 32.9738 13.0595 32.9738C3.67743 32.9738 4.194 32.9816 3.861 32.9575C0.808018 32.7418 1.50629 30.4329 1.50629 30.4329L6.01244 6.03539C6.01244 6.03539 6.39184 3.85524 6.89847 3.36257C7.4051 2.87068 8.48819 2.72017 8.48819 2.72017L10.6218 2.61698C10.5465 3.77998 11.8407 3.77998 11.8407 3.77998C12.6878 3.764 18.8904 3.62093 19.6248 3.21749C20.4123 2.78611 20.6559 1.66113 20.6559 1.66113L23.1697 1.54785C25.5888 1.54785 24.7074 4.02438 24.7074 4.02438Z" fill="#ADC5FF"/>
<path d="M28.0755 4.23262L18.4557 33.9563C18.0499 35.2094 16.8644 36.0418 15.5478 35.9984L3.38086 35.5942C3.38086 35.5942 2.1651 35.5476 1.19141 34.8501C2.13252 34.2349 3.02087 33.6033 3.86034 32.957C4.18093 32.9803 3.5694 32.9733 13.0589 32.9733C13.0589 32.9733 15.1832 33.1138 15.9854 31.3976C16.7868 29.6822 24.7068 4.02391 24.7068 4.02391C24.7068 4.02391 25.5881 1.54739 23.169 1.54739L20.6552 1.66066C20.6552 1.66066 20.4116 2.78565 19.6241 3.21702C19.4193 3.32952 18.7948 3.42107 17.9824 3.49555C17.9817 2.23479 17.932 1.21144 17.9048 0.492225L24.8503 0.00266153C25.1692 -0.0198382 25.4818 0.101195 25.703 0.332399L27.6488 2.36669C28.1228 2.86254 28.2873 3.57935 28.0755 4.23262Z" fill="#00298F"/>
<path d="M24.7068 4.02438C24.7068 4.02438 16.7868 29.6826 15.9854 31.398C15.1832 33.1142 13.0589 32.9738 13.0589 32.9738C3.67678 32.9738 4.19335 32.9816 3.86035 32.9575C16.665 23.1127 17.9871 10.0784 17.9824 3.49602C18.7948 3.42154 19.4193 3.32999 19.6241 3.21749C20.4116 2.78611 20.6553 1.66113 20.6553 1.66113L23.169 1.54785C25.5881 1.54785 24.7068 4.02438 24.7068 4.02438Z" fill="#D6E2FF"/>
<path d="M16.0847 15.9613C11.9171 17.9019 6.93359 15.7465 6.68213 11.9168C6.56653 10.2231 7.43549 8.60465 8.90108 7.48587C11.4799 5.51443 15.4062 5.45259 17.8164 7.40596C20.8439 9.86053 19.9464 14.1646 16.0847 15.9613Z" fill="#79E9B3"/>
<path d="M16.8374 9.62237C11.2047 14.9104 11.5951 14.5471 11.5282 14.601C11.1545 14.8869 10.6205 14.8535 10.2869 14.5141L8.46515 12.6637C8.10127 12.2944 8.10593 11.6986 8.47601 11.3347C8.84609 10.9708 9.44117 10.9755 9.80505 11.3455L10.982 12.5411C12.6533 10.9717 11.6278 11.9344 15.5502 8.25221C15.9289 7.8961 16.5239 7.91549 16.8793 8.29333C17.2346 8.67195 17.216 9.26703 16.8374 9.62237Z" fill="white"/>
<path d="M17.0564 19.9403C17.0564 20.0257 16.9874 20.0955 16.9013 20.0955H5.4706C5.38526 20.0955 5.31543 20.0257 5.31543 19.9403C5.31543 19.855 5.38526 19.7852 5.4706 19.7852H16.9013C16.9874 19.7852 17.0564 19.855 17.0564 19.9403Z" fill="#A3A3F5"/>
<path d="M15.9705 23.9745C15.9705 24.0599 15.9014 24.1297 15.8153 24.1297H4.38466C4.29932 24.1297 4.22949 24.0599 4.22949 23.9745C4.22949 23.8892 4.29932 23.8193 4.38466 23.8193H15.8153C15.9014 23.8193 15.9705 23.8892 15.9705 23.9745Z" fill="#A3A3F5"/>
<path d="M16.085 15.9606C17.1052 12.8556 17.5948 9.92137 17.8167 7.40527C20.8441 9.85984 19.9467 14.1639 16.085 15.9606Z" fill="#14D2AA"/>
<path d="M9.2514 27.9286C9.25125 27.9287 9.25117 27.9289 9.25101 27.929C9.22401 27.8834 9.17483 27.8525 9.11796 27.8525H3.40224C3.3169 27.8525 3.24707 27.9224 3.24707 28.0077C3.24707 28.0931 3.3169 28.1629 3.40224 28.1629C9.53459 28.1629 9.12199 28.1661 9.15558 28.1578C9.2559 28.1323 9.30377 28.0166 9.2514 27.9286Z" fill="#A3A3F5"/>
</svg>
