<svg width="64" height="64" viewBox="0 0 64 64" fill="none" xmlns="http://www.w3.org/2000/svg">
<g clip-path="url(#clip0_1_33977)">
<mask id="path-1-inside-1_1_33977" fill="white">
<path d="M64 32C64 49.6731 49.6731 64 32 64C14.3269 64 0 49.6731 0 32C0 14.3269 14.3269 0 32 0C49.6731 0 64 14.3269 64 32ZM7.4132 32C7.4132 45.5789 18.4211 56.5868 32 56.5868C45.5789 56.5868 56.5868 45.5789 56.5868 32C56.5868 18.4211 45.5789 7.4132 32 7.4132C18.4211 7.4132 7.4132 18.4211 7.4132 32Z"/>
</mask>
<path d="M64 32C64 49.6731 49.6731 64 32 64C14.3269 64 0 49.6731 0 32C0 14.3269 14.3269 0 32 0C49.6731 0 64 14.3269 64 32ZM7.4132 32C7.4132 45.5789 18.4211 56.5868 32 56.5868C45.5789 56.5868 56.5868 45.5789 56.5868 32C56.5868 18.4211 45.5789 7.4132 32 7.4132C18.4211 7.4132 7.4132 18.4211 7.4132 32Z" stroke="#F4F4F5" stroke-width="9.6" mask="url(#path-1-inside-1_1_33977)"/>
<path d="M32 1.6C32 0.716344 32.7169 -0.00417263 33.5995 0.0399837C39.7921 0.349818 45.7743 2.45347 50.8091 6.11146C55.8439 9.76945 59.6932 14.8088 61.9015 20.6026C62.2162 21.4283 61.7525 22.3328 60.9121 22.6059L56.9024 23.9087C56.062 24.1818 55.1643 23.7194 54.8371 22.8985C53.1211 18.5926 50.2176 14.8485 46.4501 12.1112C42.6825 9.37389 38.2244 7.76952 33.599 7.4681C32.7172 7.41063 32 6.69972 32 5.81606V1.6Z" fill="#299BFF"/>
<path d="M19.173 38.4004V29.0604H16.093V26.8404H17.313C17.8997 26.8404 18.373 26.7604 18.733 26.6004C19.1063 26.4271 19.373 26.1537 19.533 25.7804C19.7063 25.3937 19.793 24.8671 19.793 24.2004H22.213V38.4004H19.173ZM24.8402 40.6004L30.7602 23.4004H33.7202L27.8002 40.6004H24.8402ZM41.3294 38.7204C40.1694 38.7204 39.1894 38.5471 38.3894 38.2004C37.5894 37.8537 36.9694 37.3604 36.5294 36.7204C36.0894 36.0804 35.8361 35.3337 35.7694 34.4804L38.8494 34.3404C38.9694 34.9537 39.2361 35.4137 39.6494 35.7204C40.0761 36.0137 40.6361 36.1604 41.3294 36.1604C42.1027 36.1604 42.7094 35.9404 43.1494 35.5004C43.6027 35.0604 43.8294 34.4537 43.8294 33.6804C43.8294 33.1737 43.7227 32.7337 43.5094 32.3604C43.3094 31.9871 43.0227 31.6937 42.6494 31.4804C42.2761 31.2671 41.8294 31.1604 41.3094 31.1604C40.7361 31.1604 40.2427 31.2871 39.8294 31.5404C39.4161 31.7937 39.1294 32.1137 38.9694 32.5004H35.9294L36.9094 24.2004H45.9694V26.7604H39.4894L38.9694 30.9004L38.6294 30.6004C38.8561 30.2537 39.1361 29.9604 39.4694 29.7204C39.8161 29.4671 40.2161 29.2737 40.6694 29.1404C41.1227 28.9937 41.6227 28.9204 42.1694 28.9204C43.1561 28.9204 44.0027 29.1271 44.7094 29.5404C45.4294 29.9537 45.9827 30.5204 46.3694 31.2404C46.7561 31.9604 46.9494 32.7737 46.9494 33.6804C46.9494 34.7071 46.7161 35.6004 46.2494 36.3604C45.7827 37.1204 45.1294 37.7071 44.2894 38.1204C43.4494 38.5204 42.4627 38.7204 41.3294 38.7204Z" fill="#1A1A1A"/>
</g>
<defs>
<clipPath id="clip0_1_33977">
<rect width="64" height="64" fill="white"/>
</clipPath>
</defs>
</svg>
