<svg width="56" height="56" viewBox="0 0 56 56" fill="none" xmlns="http://www.w3.org/2000/svg">
<g clip-path="url(#clip0_1_34640)">
<mask id="path-1-inside-1_1_34640" fill="white">
<path d="M56 28C56 43.464 43.464 56 28 56C12.536 56 0 43.464 0 28C0 12.536 12.536 0 28 0C43.464 0 56 12.536 56 28ZM6.48655 28C6.48655 39.8816 16.1185 49.5135 28 49.5135C39.8816 49.5135 49.5135 39.8816 49.5135 28C49.5135 16.1185 39.8816 6.48655 28 6.48655C16.1185 6.48655 6.48655 16.1185 6.48655 28Z"/>
</mask>
<path d="M56 28C56 43.464 43.464 56 28 56C12.536 56 0 43.464 0 28C0 12.536 12.536 0 28 0C43.464 0 56 12.536 56 28ZM6.48655 28C6.48655 39.8816 16.1185 49.5135 28 49.5135C39.8816 49.5135 49.5135 39.8816 49.5135 28C49.5135 16.1185 39.8816 6.48655 28 6.48655C16.1185 6.48655 6.48655 16.1185 6.48655 28Z" stroke="white" stroke-width="8.4" mask="url(#path-1-inside-1_1_34640)"/>
<path d="M28 1.4C28 0.626803 28.6273 -0.00365134 29.3995 0.0349874C34.4462 0.287498 39.3401 1.90191 43.556 4.71885C48.1605 7.79553 51.7494 12.1685 53.8686 17.2849C55.9879 22.4012 56.5424 28.0311 55.462 33.4625C54.3816 38.894 51.7149 43.8831 47.799 47.799C43.8831 51.7149 38.894 54.3816 33.4625 55.462C28.0311 56.5424 22.4012 55.9879 17.2849 53.8686C12.1685 51.7494 7.79553 48.1605 4.71885 43.556C1.90191 39.3401 0.287497 34.4462 0.0349873 29.3995C-0.00365138 28.6273 0.626801 28 1.4 28H5.08905C5.86225 28 6.48431 28.6275 6.53459 29.3991C6.77978 33.1614 8.01051 36.8023 10.1143 39.9508C12.478 43.4883 15.8375 46.2454 19.7681 47.8735C23.6987 49.5016 28.0239 49.9276 32.1966 49.0976C36.3693 48.2676 40.2022 46.2189 43.2105 43.2105C46.2189 40.2022 48.2676 36.3693 49.0976 32.1966C49.9276 28.0239 49.5016 23.6987 47.8735 19.7681C46.2454 15.8375 43.4883 12.478 39.9508 10.1143C36.8023 8.01052 33.1614 6.77978 29.3991 6.53459C28.6275 6.48431 28 5.86225 28 5.08905V1.4Z" fill="#299BFF"/>
<path d="M18.7134 34.5996V32.2371H12.5359V30.1196L18.2059 22.1746H21.3734V29.9971H22.8259V32.2371H21.3734V34.5996H18.7134ZM15.3534 29.9971H18.7134V25.4471L15.3534 29.9971ZM24.1603 36.5246L29.3403 21.4746H31.9303L26.7503 36.5246H24.1603ZM38.5883 34.8796C37.5733 34.8796 36.7158 34.7279 36.0158 34.4246C35.3158 34.1213 34.7733 33.6896 34.3883 33.1296C34.0033 32.5696 33.7817 31.9163 33.7233 31.1696L36.4183 31.0471C36.5233 31.5838 36.7567 31.9863 37.1183 32.2546C37.4917 32.5113 37.9817 32.6396 38.5883 32.6396C39.265 32.6396 39.7958 32.4471 40.1808 32.0621C40.5775 31.6771 40.7758 31.1463 40.7758 30.4696C40.7758 30.0263 40.6825 29.6413 40.4958 29.3146C40.3208 28.9879 40.07 28.7313 39.7433 28.5446C39.4167 28.3579 39.0258 28.2646 38.5708 28.2646C38.0692 28.2646 37.6375 28.3754 37.2758 28.5971C36.9142 28.8188 36.6633 29.0988 36.5233 29.4371H33.8633L34.7208 22.1746H42.6483V24.4146H36.9783L36.5233 28.0371L36.2258 27.7746C36.4242 27.4713 36.6692 27.2146 36.9608 27.0046C37.2642 26.7829 37.6142 26.6138 38.0108 26.4971C38.4075 26.3688 38.845 26.3046 39.3233 26.3046C40.1867 26.3046 40.9275 26.4854 41.5458 26.8471C42.1758 27.2088 42.66 27.7046 42.9983 28.3346C43.3367 28.9646 43.5058 29.6763 43.5058 30.4696C43.5058 31.3679 43.3017 32.1496 42.8933 32.8146C42.485 33.4796 41.9133 33.9929 41.1783 34.3546C40.4433 34.7046 39.58 34.8796 38.5883 34.8796Z" fill="#1A1A1A"/>
</g>
<defs>
<clipPath id="clip0_1_34640">
<rect width="56" height="56" fill="white"/>
</clipPath>
</defs>
</svg>
