<svg width="36" height="36" viewBox="0 0 36 36" fill="none" xmlns="http://www.w3.org/2000/svg">
<path d="M0 18C0 8.05888 8.05888 0 18 0C27.9411 0 36 8.05888 36 18C36 27.9411 27.9411 36 18 36C8.05888 36 0 27.9411 0 18Z" fill="#A855F7"/>
<path d="M14.6667 13.0003H21.3334M24.6667 23.0003V13.0003C24.6667 11.1594 23.1743 9.66699 21.3334 9.66699L14.6667 9.66699C12.8258 9.66699 11.3334 11.1594 11.3334 13.0003L11.3334 23.0003C11.3334 24.8413 12.8258 26.3337 14.6667 26.3337H21.3334C23.1743 26.3337 24.6667 24.8413 24.6667 23.0003Z" stroke="white" stroke-width="1.5" stroke-linecap="round"/>
<path d="M15.2916 16.333C15.2916 16.6782 15.0118 16.958 14.6666 16.958C14.3214 16.958 14.0416 16.6782 14.0416 16.333C14.0416 15.9878 14.3214 15.708 14.6666 15.708C15.0118 15.708 15.2916 15.9878 15.2916 16.333Z" fill="white"/>
<path d="M18.625 16.333C18.625 16.6782 18.3451 16.958 18 16.958C17.6548 16.958 17.375 16.6782 17.375 16.333C17.375 15.9878 17.6548 15.708 18 15.708C18.3451 15.708 18.625 15.9878 18.625 16.333Z" fill="white"/>
<path d="M21.9583 16.333C21.9583 16.6782 21.6785 16.958 21.3333 16.958C20.9881 16.958 20.7083 16.6782 20.7083 16.333C20.7083 15.9878 20.9881 15.708 21.3333 15.708C21.6785 15.708 21.9583 15.9878 21.9583 16.333Z" fill="white"/>
<path d="M15.2916 19.667C15.2916 20.0122 15.0118 20.292 14.6666 20.292C14.3214 20.292 14.0416 20.0122 14.0416 19.667C14.0416 19.3218 14.3214 19.042 14.6666 19.042C15.0118 19.042 15.2916 19.3218 15.2916 19.667Z" fill="white"/>
<path d="M18.625 19.667C18.625 20.0122 18.3451 20.292 18 20.292C17.6548 20.292 17.375 20.0122 17.375 19.667C17.375 19.3218 17.6548 19.042 18 19.042C18.3451 19.042 18.625 19.3218 18.625 19.667Z" fill="white"/>
<path d="M21.9583 19.667C21.9583 20.0122 21.6785 20.292 21.3333 20.292C20.9881 20.292 20.7083 20.0122 20.7083 19.667C20.7083 19.3218 20.9881 19.042 21.3333 19.042C21.6785 19.042 21.9583 19.3218 21.9583 19.667Z" fill="white"/>
<path d="M15.2916 23C15.2916 23.3452 15.0118 23.625 14.6666 23.625C14.3214 23.625 14.0416 23.3452 14.0416 23C14.0416 22.6548 14.3214 22.375 14.6666 22.375C15.0118 22.375 15.2916 22.6548 15.2916 23Z" fill="white"/>
<path d="M18.625 23C18.625 23.3452 18.3451 23.625 18 23.625C17.6548 23.625 17.375 23.3452 17.375 23C17.375 22.6548 17.6548 22.375 18 22.375C18.3451 22.375 18.625 22.6548 18.625 23Z" fill="white"/>
<path d="M21.9583 23C21.9583 23.3452 21.6785 23.625 21.3333 23.625C20.9881 23.625 20.7083 23.3452 20.7083 23C20.7083 22.6548 20.9881 22.375 21.3333 22.375C21.6785 22.375 21.9583 22.6548 21.9583 23Z" fill="white"/>
</svg>
