<svg width="20" height="20" viewBox="0 0 20 20" fill="none" xmlns="http://www.w3.org/2000/svg">
<path d="M3.1525 2.35492L10 0.833252L16.8475 2.35492C17.0326 2.39606 17.198 2.49906 17.3167 2.64692C17.4353 2.79479 17.5 2.97868 17.5 3.16825V11.4908C17.4999 12.3139 17.2967 13.1242 16.9082 13.8499C16.5198 14.5756 15.9582 15.1942 15.2733 15.6508L10 19.1666L4.72667 15.6508C4.04189 15.1943 3.48038 14.5758 3.09196 13.8503C2.70353 13.1248 2.5002 12.3146 2.5 11.4916V3.16825C2.50003 2.97868 2.5647 2.79479 2.68332 2.64692C2.80195 2.49906 2.96745 2.39606 3.1525 2.35492ZM10 11.2499L12.4492 12.5374L11.9817 9.81075L13.9625 7.87909L11.2242 7.48075L10 4.99992L8.775 7.48075L6.0375 7.87909L8.01833 9.81075L7.55167 12.5374L10 11.2499Z" fill="#00DD77"/>
</svg>
