<svg width="16" height="16" viewBox="0 0 16 16" fill="none" xmlns="http://www.w3.org/2000/svg">
<path d="M8.00004 1.33301C4.33337 1.33301 1.33337 4.33301 1.33337 7.99967C1.33337 11.6663 4.33337 14.6663 8.00004 14.6663C11.6667 14.6663 14.66 11.6663 14.66 7.99967C14.66 4.33301 11.6667 1.33301 8.00004 1.33301ZM11.2534 9.55301C11.2534 9.61301 11.24 9.67301 11.22 9.73301C11.1734 9.84634 11.08 9.93967 10.9667 9.98634C10.9067 10.013 10.8467 10.0197 10.7867 10.0197H9.54671C9.28671 10.0197 9.08004 9.81301 9.08004 9.55301C9.08004 9.29301 9.28671 9.08634 9.54671 9.08634H9.66671L8.26004 7.67967L7.58004 8.69301C7.50004 8.80634 7.38004 8.88634 7.24004 8.89967C7.10004 8.91301 6.96671 8.86634 6.86671 8.76634L4.88004 6.77967C4.70004 6.59967 4.70004 6.30634 4.88004 6.11967C5.06004 5.93301 5.35337 5.93967 5.54004 6.11967L7.12671 7.70634L7.80671 6.69301C7.88671 6.57967 8.00671 6.49967 8.14671 6.48634C8.29337 6.47301 8.42004 6.51967 8.52004 6.61967L10.3334 8.43301V8.31301C10.3334 8.05301 10.54 7.84634 10.8 7.84634C11.06 7.84634 11.2667 8.05301 11.2667 8.31301V9.55301H11.2534Z" fill="#EF4343"/>
</svg>
