<svg width="16" height="16" viewBox="0 0 16 16" fill="none" xmlns="http://www.w3.org/2000/svg">
<path d="M7.99998 1.33301C4.45998 1.33301 1.33331 4.33301 1.33331 7.99967C1.33331 11.6663 4.33331 14.6663 7.99998 14.6663C12.3333 14.6663 14.66 10.9997 14.66 7.99967C14.66 4.99967 12.3333 1.33301 7.99998 1.33301ZM11.2533 7.68634C11.2533 7.94634 11.0466 8.15301 10.7866 8.15301C10.5266 8.15301 10.32 7.94634 10.32 7.68634V7.56634L8.50665 9.37967C8.40665 9.47967 8.27331 9.52634 8.13331 9.51301C7.99331 9.49967 7.86665 9.42634 7.79331 9.30634L7.11331 8.29301L5.52665 9.87967C5.43331 9.97301 5.31998 10.013 5.19998 10.013C5.07998 10.013 4.95998 9.96634 4.87331 9.87967C4.69331 9.69967 4.69331 9.40634 4.87331 9.21967L6.85998 7.23301C6.95998 7.13301 7.09331 7.08634 7.23331 7.09967C7.37331 7.11301 7.49998 7.18634 7.57331 7.30634L8.25331 8.31967L9.65998 6.91301H9.53998C9.27998 6.91301 9.07331 6.70634 9.07331 6.44634C9.07331 6.18634 9.27998 5.97967 9.53998 5.97967H10.78C10.84 5.97967 10.9 5.99301 10.96 6.01301C11.0733 6.05967 11.1666 6.15301 11.2133 6.26634C11.24 6.32634 11.2466 6.38634 11.2466 6.44634V7.68634H11.2533Z" fill="#1AC057"/>
</svg>
