<svg width="111" height="111" viewBox="0 0 111 111" fill="none" xmlns="http://www.w3.org/2000/svg">
<path d="M72.1504 83.2497L55.5005 111C70.9331 111 84.0409 105.608 94.8246 94.8241C105.608 84.0405 111 70.9324 111 55.4997C111 40.0673 105.608 26.9591 94.8246 16.1755C84.041 5.39186 70.9328 5.32798e-05 55.5003 0L72.1504 27.7498L88.8003 55.4997L38.8506 83.2497H72.1504Z" fill="#0088FF"/>
<path d="M38.85 27.7498L55.4997 0C40.0671 -2.21999e-06 26.9591 5.39178 16.1754 16.1755C5.3918 26.9591 2.21999e-06 40.0671 0 55.4997C-2.21999e-06 70.9324 5.39179 84.0404 16.1754 94.8241C26.959 105.608 40.0673 111 55.4999 111L38.85 83.2497L22.2001 55.4997L72.1498 27.7498H38.85Z" fill="#0044EE"/>
<path d="M55.5 0L38.8503 27.7498H72.1501L22.2004 55.4997L38.8503 83.2497L88.8 55.4997L72.1501 27.7498L55.5 0Z" fill="white"/>
<path d="M38.8506 83.2495L55.5005 111L72.1504 83.2495H38.8506Z" fill="white"/>
</svg>
